<svg id="Component_3_1" data-name="Component 3 – 1" xmlns="http://www.w3.org/2000/svg" xmlns:xlink="http://www.w3.org/1999/xlink" width="259" height="134.762" viewBox="0 0 259 134.762">
  <defs>
    <linearGradient id="linear-gradient" x1="0.191" y1="0.913" x2="1" gradientUnits="objectBoundingBox">
      <stop offset="0" stop-color="#95cd43"/>
      <stop offset="1" stop-color="#a2de49"/>
    </linearGradient>
  </defs>
  <text id="footsteps" transform="translate(0 63.762)" fill="#474e3d" font-size="56" font-family="Neuton-Bold, Neuton" font-weight="700" letter-spacing="0.025em"><tspan x="-107.442" y="58">footsteps</tspan></text>
  <g id="_1b29ce49-d8eb-46a9-be49-00bc3d0b13b9" data-name="1b29ce49-d8eb-46a9-be49-00bc3d0b13b9" transform="translate(1.589 -0.714)">
    <path id="Path_2" data-name="Path 2" d="M119.161,57.689,110.977,75.1a4.1,4.1,0,0,1-7.478-3.353l7.564-17.692a4.438,4.438,0,0,1,8.161,3.49C119.207,57.588,119.18,57.647,119.161,57.689Zm-7.472-45.542a2.327,2.327,0,0,0-3.258.454c-.034.045-.066.091-.1.139l-2.623,3.972a9.013,9.013,0,0,0-1.263,4.545l.814,20.056a2.636,2.636,0,0,0,2.578,2.5l.742.006a3.45,3.45,0,0,0,3.158-2.363l6.217-21.772a3.858,3.858,0,0,0-1.31-3.858ZM129.7,15.707a7.428,7.428,0,0,0,7.711-7.265A7.468,7.468,0,0,0,130.142.715a7.574,7.574,0,0,0-7.506,7.543A7.55,7.55,0,0,0,129.7,15.707Z" transform="translate(0 0)" fill="url(#linear-gradient)"/>
    <path id="Path_3" data-name="Path 3" d="M154.076,37.527l-23.71-14.744a4.691,4.691,0,0,0-6.459,1.509,4.581,4.581,0,0,0-.234.426,5.815,5.815,0,0,0-1.208,2.316l-4.78,18.44a5.808,5.808,0,0,0-.129,2.294,5.14,5.14,0,0,0,1.868,4.851l13.2,10.524V77.7a4.1,4.1,0,0,0,8.2,0V61.177a4.087,4.087,0,0,0-1.2-2.884l-.173-.173-10.29-10.27L132.7,34.207l17.118,8.032-2.25,37.626a1.756,1.756,0,0,0,3.5.258l0-.048,2.214-37.027a3.045,3.045,0,0,0,.79-5.52Z" transform="translate(-2.864 -4.274)" fill="url(#linear-gradient)"/>
  </g>
</svg>
