<svg id="Component_3_1" data-name="Component 3 – 1" xmlns="http://www.w3.org/2000/svg" xmlns:xlink="http://www.w3.org/1999/xlink" width="213.735" height="131.907" viewBox="0 0 213.735 131.907">
  <defs>
    <linearGradient id="linear-gradient" x1="0.191" y1="0.913" x2="1" gradientUnits="objectBoundingBox">
      <stop offset="0" stop-color="#95cd43"/>
      <stop offset="1" stop-color="#a2de49"/>
    </linearGradient>
  </defs>
  <path id="Path_69" data-name="Path 69" d="M22.55,58l.328-3.172,4.184-1.559V37.711H22.988l.273-3.035,3.773-.629a12.491,12.491,0,0,1,3.746-8.395A10.706,10.706,0,0,1,38.3,22.59q6.4,0,6.4,3.637a3.379,3.379,0,0,1-1.23,2.488,4.948,4.948,0,0,1-2.543,1.367q-.738-1.176-1.23-1.873a6.978,6.978,0,0,0-1.367-1.395,3.193,3.193,0,0,0-2.051-.7q-2.734,0-2.844,5.414l-.055,2.68h7.109l-.328,3.5H33.379V53.078L40.105,54.5,39.886,58ZM57.5,36.945q-4.621,0-4.621,7.055,0,6.672,2.516,9.3a4.632,4.632,0,0,0,3.527,1.449,3.6,3.6,0,0,0,3.254-1.736,7.534,7.534,0,0,0,1.094-4.1q0-2.365-.15-3.869a19.693,19.693,0,0,0-.547-3.021,10.614,10.614,0,0,0-1.025-2.611A4.451,4.451,0,0,0,57.5,36.945ZM46.591,50.754a17.076,17.076,0,0,1-.711-5.113A13.206,13.206,0,0,1,47,40.254a12.033,12.033,0,0,1,2.953-4.184,13.208,13.208,0,0,1,9.051-3.418,10.728,10.728,0,0,1,8.258,3.295q3.062,3.295,3.063,9.324a13.74,13.74,0,0,1-3.459,9.748,11.609,11.609,0,0,1-8.9,3.719Q49.025,58.738,46.591,50.754ZM85.042,36.945q-4.621,0-4.621,7.055,0,6.672,2.516,9.3a4.632,4.632,0,0,0,3.527,1.449,3.6,3.6,0,0,0,3.254-1.736,7.534,7.534,0,0,0,1.094-4.1q0-2.365-.15-3.869a19.693,19.693,0,0,0-.547-3.021,10.614,10.614,0,0,0-1.025-2.611A4.451,4.451,0,0,0,85.042,36.945ZM74.132,50.754a17.076,17.076,0,0,1-.711-5.113,13.206,13.206,0,0,1,1.121-5.387,12.033,12.033,0,0,1,2.953-4.184,13.208,13.208,0,0,1,9.051-3.418A10.728,10.728,0,0,1,94.8,35.947q3.062,3.295,3.063,9.324a13.74,13.74,0,0,1-3.459,9.748,11.609,11.609,0,0,1-8.9,3.719Q76.565,58.738,74.132,50.754Zm36.7-1.941a5.015,5.015,0,0,0,.916,3.391,3.615,3.615,0,0,0,2.816,1.012,7.365,7.365,0,0,0,3.814-1.148l.684,2.543a9.778,9.778,0,0,1-3.322,2.871,10.874,10.874,0,0,1-5.277,1.148,6.1,6.1,0,0,1-4.812-1.832q-1.627-1.832-1.6-6.4l.082-12.168h-3.09V35.469a27.611,27.611,0,0,0,6.973-7.055h2.953V34.43h7.6l-.273,3.883h-7.41Zm19.83,10.145a12.769,12.769,0,0,1-6.48-1.49q-2.57-1.49-2.57-3.432a3.854,3.854,0,0,1,1.176-3.008,5.32,5.32,0,0,1,3.254-1.23,10.222,10.222,0,0,0,2.133,4.2,3.986,3.986,0,0,0,2.953,1.436q3.309,0,3.309-2.242,0-1.641-3.117-3.117a35.785,35.785,0,0,1-5.8-3.445,7.892,7.892,0,0,1-2.229-2.475,6.005,6.005,0,0,1-.889-3.062,7.625,7.625,0,0,1,.533-2.871,9.687,9.687,0,0,1,1.6-2.6,7.69,7.69,0,0,1,2.994-2.078,12.856,12.856,0,0,1,4.922-.807,10.513,10.513,0,0,1,5.168,1.2,3.591,3.591,0,0,1,2.174,3.186,4.029,4.029,0,0,1-1.285,3.145,5.33,5.33,0,0,1-3.227,1.326l-.547-1.75q-1.012-3.937-4.129-3.937a2.615,2.615,0,0,0-1.955.738,2.446,2.446,0,0,0-.725,1.777,2.641,2.641,0,0,0,.93,1.928,9.182,9.182,0,0,0,2.324,1.572q1.395.684,3.008,1.6t3.008,1.887a8.164,8.164,0,0,1,2.324,2.5,6.358,6.358,0,0,1,.93,3.363,6.543,6.543,0,0,1-2.939,5.578A11.456,11.456,0,0,1,130.662,58.957Zm22.427-10.145a5.015,5.015,0,0,0,.916,3.391,3.615,3.615,0,0,0,2.816,1.012,7.365,7.365,0,0,0,3.814-1.148l.684,2.543A9.778,9.778,0,0,1,158,57.48a10.874,10.874,0,0,1-5.277,1.148,6.1,6.1,0,0,1-4.812-1.832q-1.627-1.832-1.6-6.4l.082-12.168H143.3V35.469a27.61,27.61,0,0,0,6.973-7.055h2.953V34.43h7.6l-.273,3.883h-7.41Zm24.505-7.492q0-4.43-3.035-4.43a3.114,3.114,0,0,0-2.666,1.9,11.023,11.023,0,0,0-1.162,5.154l6.7-.656A8.745,8.745,0,0,0,177.595,41.32ZM163.9,46.27a14.383,14.383,0,0,1,1.08-5.578,12.427,12.427,0,0,1,2.857-4.293,11.76,11.76,0,0,1,8.422-3.664,7.587,7.587,0,0,1,5.988,2.543,10.007,10.007,0,0,1,2.242,6.863,17.977,17.977,0,0,1-.52,4.211l-13.125.273a8.067,8.067,0,0,0,2.064,5.2,6.931,6.931,0,0,0,5.387,2.078,12.821,12.821,0,0,0,6.275-1.531l.547,2.543a9.991,9.991,0,0,1-4.471,2.939,17.468,17.468,0,0,1-5.756.971,10.4,10.4,0,0,1-7.875-3.281Q163.9,52.258,163.9,46.27Zm23.357,21.875.328-3.227,4.211-1.477V39.3l-4.156-1.723.52-3.363,9.652-.875.82.766-.492,2.9.273.082a11.425,11.425,0,0,1,3.131-2.994,7.239,7.239,0,0,1,4.033-1.244,8.79,8.79,0,0,1,3.664.7,8.5,8.5,0,0,1,2.789,2.092q2.625,2.953,2.625,9.283t-3.637,9.967a12.555,12.555,0,0,1-9.27,3.637,11.306,11.306,0,0,1-3.418-.355l-.027-1.586v6.891l5.469,1.395-.465,3.281Zm20.453-21.027q0-8.422-4.43-8.422a8.067,8.067,0,0,0-4.977,2.133V53.434a9.874,9.874,0,0,0,4.252.875,4.416,4.416,0,0,0,3.773-1.9A8.862,8.862,0,0,0,207.706,47.117ZM226.5,58.957a12.769,12.769,0,0,1-6.48-1.49q-2.57-1.49-2.57-3.432a3.853,3.853,0,0,1,1.176-3.008,5.32,5.32,0,0,1,3.254-1.23,10.222,10.222,0,0,0,2.133,4.2,3.986,3.986,0,0,0,2.953,1.436q3.309,0,3.309-2.242,0-1.641-3.117-3.117a35.785,35.785,0,0,1-5.8-3.445,7.892,7.892,0,0,1-2.229-2.475,6.005,6.005,0,0,1-.889-3.062,7.625,7.625,0,0,1,.533-2.871,9.687,9.687,0,0,1,1.6-2.6,7.69,7.69,0,0,1,2.994-2.078,12.856,12.856,0,0,1,4.922-.807,10.513,10.513,0,0,1,5.168,1.2,3.591,3.591,0,0,1,2.174,3.186,4.029,4.029,0,0,1-1.285,3.145,5.33,5.33,0,0,1-3.227,1.326l-.547-1.75q-1.012-3.937-4.129-3.937a2.615,2.615,0,0,0-1.955.738,2.446,2.446,0,0,0-.725,1.777,2.641,2.641,0,0,0,.93,1.928,9.182,9.182,0,0,0,2.324,1.572q1.395.684,3.008,1.6t3.008,1.887a8.164,8.164,0,0,1,2.324,2.5,6.358,6.358,0,0,1,.93,3.363,6.543,6.543,0,0,1-2.939,5.578A11.456,11.456,0,0,1,226.5,58.957Z" transform="translate(-22.55 63.762)" fill="#474e3d"/>
  <g id="_1b29ce49-d8eb-46a9-be49-00bc3d0b13b9" data-name="1b29ce49-d8eb-46a9-be49-00bc3d0b13b9" transform="translate(-20.961 -0.714)">
    <path id="Path_2" data-name="Path 2" d="M119.161,57.689,110.977,75.1a4.1,4.1,0,0,1-7.478-3.353l7.564-17.692a4.438,4.438,0,0,1,8.161,3.49C119.207,57.588,119.18,57.647,119.161,57.689Zm-7.472-45.542a2.327,2.327,0,0,0-3.258.454c-.034.045-.066.091-.1.139l-2.623,3.972a9.013,9.013,0,0,0-1.263,4.545l.814,20.056a2.636,2.636,0,0,0,2.578,2.5l.742.006a3.45,3.45,0,0,0,3.158-2.363l6.217-21.772a3.858,3.858,0,0,0-1.31-3.858ZM129.7,15.707a7.428,7.428,0,0,0,7.711-7.265A7.468,7.468,0,0,0,130.142.715a7.574,7.574,0,0,0-7.506,7.543A7.55,7.55,0,0,0,129.7,15.707Z" transform="translate(0 0)" fill="url(#linear-gradient)"/>
    <path id="Path_3" data-name="Path 3" d="M154.076,37.527l-23.71-14.744a4.691,4.691,0,0,0-6.459,1.509,4.581,4.581,0,0,0-.234.426,5.815,5.815,0,0,0-1.208,2.316l-4.78,18.44a5.808,5.808,0,0,0-.129,2.294,5.14,5.14,0,0,0,1.868,4.851l13.2,10.524V77.7a4.1,4.1,0,0,0,8.2,0V61.177a4.087,4.087,0,0,0-1.2-2.884l-.173-.173-10.29-10.27L132.7,34.207l17.118,8.032-2.25,37.626a1.756,1.756,0,0,0,3.5.258l0-.048,2.214-37.027a3.045,3.045,0,0,0,.79-5.52Z" transform="translate(-2.864 -4.274)" fill="url(#linear-gradient)"/>
  </g>
</svg>
